<?xml version="1.0" encoding="utf-8"?>
<!-- Generator: Adobe Illustrator 15.0.0, SVG Export Plug-In . SVG Version: 6.00 Build 0)  -->
<!DOCTYPE svg PUBLIC "-//W3C//DTD SVG 1.1//EN" "http://www.w3.org/Graphics/SVG/1.1/DTD/svg11.dtd">
<svg version="1.1" id="Layer_1" xmlns="http://www.w3.org/2000/svg" xmlns:xlink="http://www.w3.org/1999/xlink" x="0px" y="0px"
	 width="400px" height="313.453px" viewBox="0 0 400 313.453" enable-background="new 0 0 400 313.453" xml:space="preserve">
<g>
	<path fill-rule="evenodd" clip-rule="evenodd" fill="#ffffff" d="M368.456,140.734c-1.052-7.566-10.885-13.67-18.088-12.016
		c-0.719,0.163-0.737,1.186-0.055,1.415c3.217,1.066,6.224,1.813,9.06,3.79c2.75,1.912,4.049,4.49,5.013,7.465
		c-11.853,3.079-16.618,15.709-10.583,19.348c6.467,3.891,15.183-5.956,14.671-15.587c17.994-2.158,26.706,17.183,22.796,41.683
		c-4.084,25.589-15.886,38.89-36.764,38.98c-31.649,0.137-42.429-21.106-48.689-41.037c12.571-2.575,19.594-8.926,16.892-15.81
		c-2.698-6.884-14.929-0.729-25.85,12.256c1.037-3.736,1.442-6.031,1.442-6.031c23.286-18.092,26.91-40.57,18.474-42.971
		c-8.434-2.403-21.944,5.44-29.524,54.733c-8.429,11.512-17.476,15.697-19.637,10.921c-2.158-4.776-0.929-13.427,4.632-16.09
		c5.56-2.666,5.646,4.299,4.359,6.163c-1.288,1.867,4.073,2.76,4.146-3.845c0.072-6.608-17.598-13.181-20.925,10.699
		c-4.853,6.471-12.153,13.373-15.081,11.439c-2.927-1.936,3.639-19.51,6.468-20.735c2.832-1.226-6.965-12.549-12.394,10.599
		c-3.834,4.943-12.825,16.221-13.627,13.188c-0.798-3.028,13.274-22.36-5.383-22.654c3.217-6.007-1.236-14.917-7.726-10.576
		c-3.881,2.593-2.731,10.246,4.458,11.933c-5.822,14.105-15.549,30.051-23.565,28.186c-5.038-1.172-6.655-20.602,3.163-40.587
		c5.963-2.799,9.205-4.581,15.183-7.312c4.689-2.144,9.725-4.081,14.943-4.175c4.958-0.083,7.08,2.721,9.913,6.191
		c1.429,1.755,3.623-0.047,3.441-1.832c-0.587-5.857-6.702-8.539-11.849-9.234c-7.522-1.019-15.593,3.145-22.168,6.209
		c-2.611,1.215-5.201,2.514-7.794,3.819c11.439-18.559,18.171-21.675,19.803-22.478c1.727-0.849-1.189-6.565-10.997,1.026
		c-5.241,4.057-12.1,13.538-17.083,25.514c-3.05,1.425-6.145,2.75-9.314,3.834c-8.07,2.763-20.569,1.947-22.948-8.249
		c-0.279-1.193-1.955-0.95-2.071,0.203c-0.544,5.372,3.692,10.392,8.422,12.459c6.837,2.989,14.486,1.777,21.24-0.929
		c0.769-0.305,1.531-0.631,2.292-0.954c-2.963,8.916-4.715,18.814-4.059,28.69c-3.518,6.91-9.216,13.874-11.896,12.339
		c-2.684-1.537-3.293-10.819,0.497-14.464c3.787-3.643-1.741-7.722-5.785,0.261c2.847-9.02-15.821-12.502-23.94,4.763
		c-8.125,17.265,11.351,22.434,22.493,3.449c1.02,14.649,13.42,8.676,19.39-3.406c7.41,15.854,20.515,10.766,35.705-22.32
		c16.913,2.495-6.398,14.148-0.794,21.315c5.604,7.167,15.125-3.626,19.906-10.039c0.936,14.468,14.816,8.215,22.053-2.778
		c5.081,9.702,19.088,4.843,25.799-5.955c-1.227,10.646,6.397,11.45,7.475,0.235c3.214-4.835,6.732-9.347,6.732-9.347
		c1.331,0.453,2.781,2.223,2.781,2.223c3.312,37.294,46.891,58.051,76.227,36.361C408.72,199.581,408.026,137.198,368.456,140.734
		 M356.095,158.732c-4.233-0.076-3.591-9.988,9.314-13.699C365.852,149.049,360.328,158.809,356.095,158.732 M316.088,136.625
		c5.812,3.714-9.396,28.092-17.572,33.958C301.849,154.699,309.955,132.708,316.088,136.625 M164.014,209.228l-0.04,2.216
		c0,0-4.087,7.021-10.714,9.775c-6.625,2.753-11.713-4.219-2.104-13.515C160.764,198.409,164.674,205.471,164.014,209.228
		 M217.168,186.015c-4.73-2.543-6.344-8.212-2.786-8.697C217.941,176.834,218.448,183.211,217.168,186.015 M303.277,179.33
		c8.034-9.092,15.597-12.462,15.971-7.975c0.373,4.49-8.172,8.788-13.675,9.329C305.573,180.683,304.584,179.247,303.277,179.33"/>
	<path fill-rule="evenodd" clip-rule="evenodd" fill="#ffffff" d="M33.932,102.545c0.688,0.02,1.447,0.011,2.231-0.043
		c-0.345,22.328,22.691,30.648,47.264,6.558c-12.263,43.385-26.289,90.912-44.497,86.945c-18.208-3.968-15.886-39.314,2.829-46.765
		c9.086-3.618-7.207-8.542-16.869,6.801c-9.659,15.346-4.735,40.163,13.641,43.575c18.375,3.41,36.923-23.013,46.009-60.111
		c3.377-13.788,10.827-43.512,14.806-47.302c3.972-3.791-7.015-5.495-12.887,9.281c-17.24,16.86-36.847,24.412-36.042,1.313
		c17.004,0.202,51.363-33.292,42.85-48.938c-8.513-15.648-47.525-6.448-56.495,42.64c-0.049,0.278-0.091,0.552-0.136,0.824
		c-0.702,0.089-1.417,0.102-2.12,0.112c-2.05,0.029-4.135-0.187-6.134-0.631c-6.242-1.385-11.81-5.405-15.661-10.425
		c-7.176-9.35-9.26-21.312-5.786-32.463c5.684-18.244,27.843-39.973,47.665-27.305c1.195,0.766,2.279,1.666,3.338,2.61
		c2.452,2.187,6.083-1.417,3.617-3.618c-8.123-7.25-18.52-9.707-28.919-6.266C22.393,22.728,14.058,30.709,8.212,39.555
		c-5.72,8.66-9.419,19.61-7.851,30.051c1.859,12.367,9.066,24.317,20.509,29.891C25.002,101.509,29.364,102.409,33.932,102.545
		 M88.352,60.185C87.975,75.34,54.254,98.073,49.708,97.503C57.285,50.712,88.729,45.029,88.352,60.185"/>
	<path fill-rule="evenodd" clip-rule="evenodd" fill="#ffffff" d="M80.641,191.601c9.35-20.243,14.33-21.683,18.763-22.329
		c7.508-1.095,10.018-5.125,1.784-5.657c-8.226-0.53-21.74,3.126-33.742,35.49c-50.431,29.923-68.163,115.557-42.97,114.334
		c15.227-0.734,34.928-51.546,53.811-115.285c10.489-7.272,27.221-18.636,38.708-10.544s10.493,29.47-4.345,42.73
		c-23.032-30.413-43.673-13.304-38.222-2.466c7.087,14.087,21.36,16.201,35.356,9.241l0.638-0.315
		c1.941,2.716,5.343,4.544,8.553,4.21c1.342-0.142,2.474-1.019,2.474-2.477c0-1.24-1.128-2.615-2.474-2.474
		c-1.56,0.163-2.989-0.508-3.982-1.57c11.276-6.66,20.141-18.585,19.557-32.887C133.215,168.917,100.325,176.182,80.641,191.601
		 M24.538,306.566c-9.872-0.949-4.294-64.013,41.519-101.795C63.068,216.45,34.405,307.52,24.538,306.566 M80.833,219.467
		c8.444-5.187,21.965,6.322,27.007,13.388C87.96,242.212,72.386,224.654,80.833,219.467"/>
	<path fill-rule="evenodd" clip-rule="evenodd" fill="#ffffff" d="M107.771,110.873c2.753,17.517,23.554,16.089,35.57-6.612
		c-0.265,8.013,4.878,7.915,5.978,2.104c1.101-5.807,12.149-28.397,12.729-20.306c0.583,8.093-1.139,15.442-1.81,16.333
		c-0.675,0.887,4.029,5.042,6.42-4.456c2.386-9.5,10.859-23.552,11.044-14.488c0.182,9.065-6.22,17.709-2.506,22.638
		c3.714,4.929,12.438-3.473,15.263-9.543c-0.679,6.547,4.787,7.758,6.721-0.152c1.933-7.91,13.264-25.898,12.281-18.367
		c-0.979,7.532-2.169,13.241-2.997,15.531c-0.827,2.289,6.177,3.21,7.719-5.782c1.542-8.991,11.389-21.824,10.305-14.472
		c-1.088,7.35-7.667,20.422,0.381,27.195c3.59,3.018,9.684-3.95,11.936-9.15c3.283,13.297,19.691,1.344,25.089-11.806l0.718-0.69
		c-6.888,15.998-3.75,34.693,16.841,41.309c23.303,7.49,49.215-14.274,56.477-34.796c27.917-78.889-55.164-99.747-101.072-76.288
		c-10.602,5.417-21.603,9.638-32.262,14.862c-12.02,5.892-24.816,9.746-37.99,12.028c-11.508,1.995-24.056,3.127-34.778-2.403
		c-5.354-2.763-10.167-7.644-12.328-13.304c-2.093-5.482-0.399-11.528,1.85-16.66c0.95-2.167-2.005-4.052-3.25-1.9
		c-5.996,10.355-5.234,20.677,2.847,29.609c8.922,9.863,22.219,11.995,34.839,11.018c15.106-1.171,30.398-4.86,44.276-10.959
		c15.334-6.737,29.538-15.158,45.599-20.254c29.205-9.269,67.303-7.151,83.164,22.957c6.921,13.132,6.5,48.682-17.769,75.504
		c-13.344,14.746-59.233,15.789-35.94-38.441c0,0-7.265-9.998-11.259,4.739c1.026-12.366-21.689-10.778-24.816,11.467
		c-3.797,5.764-8.781,13.19-10.38,11.194c-1.596-1.993,8.114-19.874,2.263-29.272c-3.801-6.101-10.66,4.254-13.431,9.131
		c2.358-12.395-10.555-9.35-18.128,11.918c3.348-12.99-1.977-14.046-3.678-10.252c-1.705,3.795-3.075,13.471-3.075,13.471
		c-4.099,6.249-11.005,12.554-12.271,10.648c-1.262-1.906,9.822-16.416,1.766-25.597c-4.498-5.125-11.215,6.56-13.29,12.831
		c1.861-14.254-4.258-15.287-11.643-3.966c-3.185,4.884-5.034,10.225-5.034,10.225c1.781-11.9,1.465-13.531-0.956-13.341
		c-2.419,0.188-5.35,5.549-5.901,16.074c-5.709,9.467-15.937,17.785-19.224,18.404c-3.979,0.75-7.686,0.946-7.881-8.518
		c10.714-6.005,18.94-20.438,12.02-27.161c-4.788-4.65-22.11,1.616-20.776,24.297c-0.489-0.043-0.958-0.279-1.356-0.791
		c-1.298-1.657-3.377,0.849-2.089,2.496C105.051,110.501,106.404,110.981,107.771,110.873 M248.245,75.742
		c5.676-4.641,10.405-3.693,11.628,0.938l-0.472,2.515c-1.552,2.539-10.87,15.643-15.117,14.276
		C240.037,92.104,242.568,80.385,248.245,75.742 M127.658,85.676c0.678,5.218-4.599,15.375-12.289,19.517
		C114.692,87.338,126.98,80.457,127.658,85.676"/>
	<path fill-rule="evenodd" clip-rule="evenodd" fill="#ffffff" d="M151.551,164.597c2.463-2.738,4.026-6.739,4.026-6.739
		c5.93-5.378,10.859-6.964,12.738-6.861c1.752,0.105,4.639,1.273,4.218,4.068c0.323,2.172,3.036,4.004,4.349,1.237
		c0.743-1.567,0.359-6.609-4.784-8.165c-3.652-1.099-7.885-0.076-16.615,7.882c-0.57-4.946-3.674-5.715-6.07-3.499
		c-1.458,1.359-0.388,3.84,2.251,4.37c-0.298,0.661-0.363,5.669-4.014,7.436c-4.943,2.39-11.309-0.225-11.244-6.042
		c-0.584-4.044,3.065-11.143,8.919-12.079c0.239-0.096,3.986,0.381,4.307,0.5c-0.007-0.1,1.001,0.337,0.468-1.001
		c-6.037-1.415-9.102-12.134-0.424-14.456c3.246-0.727,6.637,1.369,6.913,2.793c-1.277,4.884,1.741,4.965,2.978,3.582
		c1.44-1.65-0.236-8.175-5.005-9.804c-6.607-2.252-12.345,1.904-14.133,7.341c-1.799,5.433,1.523,7.02,2.343,8.295
		c-9.431,0.43-12.496,8.96-12.789,13.951c-0.171,3.021,2.299,7.849,6.583,9.604C141.26,168.95,147.792,168.783,151.551,164.597"/>
	<path fill-rule="evenodd" clip-rule="evenodd" fill="#ffffff" d="M261.458,271.12c-2.543-11.374-19.811-5.69-26.96-3.453
		c-2.764,0.867-5.462,1.875-8.139,2.935c-6.423-4.041-12.049-9.154-17.831-14.112c4.646-2.492,9.173-5.137,13.583-7.555
		c9.122-5.006,24.621-14.52,34.704-8.321c2.72,1.676,5.06-2.69,2.351-4.356c-12.107-7.442-28.748,2.564-39.633,8.447
		c-4.726,2.554-9.771,5.601-15.023,8.404c-3.315-2.702-6.75-5.259-10.482-7.449c-9.071-5.325-30.13-7.49-35.658,4.442
		c-2.223,4.806,2.358,9.858,5.774,12.542c4.903,3.85,11.439,4.255,17.377,3.577c7.711-0.878,15.118-3.751,22.252-7.279
		c1.411,1.247,2.792,2.503,4.131,3.714c4.24,3.833,8.476,7.271,12.923,10.25c-11.773,5.187-22.999,11.588-34.889,16.572
		c-14.472,6.067-34.102,8.624-46.276-3.823c-3.678-3.758-3.533-8.905-2.129-13.58c0.917-3.057-3.914-4.156-4.824-1.106
		c-3.664,12.198,3.833,21.523,15.154,25.589c15.518,5.573,29.609,2.093,44.32-4.413c11.49-5.083,22.411-11.165,33.927-15.993
		c5.133,2.855,10.635,5.094,16.822,6.576C250.965,284.656,264.029,282.603,261.458,271.12 M173.625,261.337
		c-3.061-0.398-14.04-5.284-9.924-10.565c2.506-3.225,8.887-3.91,12.561-4.295c8.962-0.941,16.67,3.559,23.485,9.054
		C191.329,259.589,182.483,262.491,173.625,261.337 M235.695,275.328c-1.23-0.468-2.408-0.991-3.573-1.542
		c2.307-0.849,4.635-1.65,7.015-2.354c4.494-1.328,20.876-5.662,16.957,4.389C253.569,282.284,239.87,276.909,235.695,275.328"/>
</g>
</svg>
